<?xml version="1.0" encoding="UTF-8"?>
<svg xmlns="http://www.w3.org/2000/svg" version="1.1" viewBox="0 0 100 100">
  <defs>
    <style>
      .cls-1, .cls-2 {
        fill: #fff;
      }

      .cls-2 {
        fill-rule: evenodd;
      }
    </style>
  </defs>
  <!-- Generator: Adobe Illustrator 28.7.1, SVG Export Plug-In . SVG Version: 1.2.0 Build 142)  -->
  <g>
    <g id="Layer_1">
      <g>
        <g>
          <path d="M50,99.5C22.7,99.5.5,77.3.5,50S22.7.5,50,.5s49.5,22.2,49.5,49.5-22.2,49.5-49.5,49.5Z"/>
          <path class="cls-1" d="M50,1c27,0,49,22,49,49s-22,49-49,49S1,77,1,50,23,1,50,1M50,0C22.4,0,0,22.4,0,50s22.4,50,50,50,50-22.4,50-50S77.6,0,50,0h0Z"/>
        </g>
        <path class="cls-2" d="M50,0C22.4,0,0,22.9,0,51.3s14.3,41.8,34.2,48.6c2.5.5,3.4-1.1,3.4-2.5s0-5.3,0-9.5c-13.9,3.1-16.8-6.1-16.8-6.1-2.2-5.9-5.6-7.5-5.6-7.5-4.6-3.1.3-3.1.3-3.1,5.1.3,7.7,5.3,7.7,5.3,4.5,7.8,11.7,5.6,14.6,4.2.4-3.3,1.7-5.6,3.1-6.9-11.1-1.2-22.8-5.6-22.8-25.3s2-10.2,5.1-13.7c-.5-1.3-2.2-6.5.5-13.6,0,0,4.2-1.4,13.8,5.3,4.1-1.1,8.3-1.7,12.5-1.7,4.2,0,8.5.6,12.5,1.7,9.5-6.6,13.8-5.3,13.8-5.3,2.7,7,1,12.3.5,13.6,3.2,3.6,5.1,8.1,5.1,13.7,0,19.7-11.7,24-22.9,25.3,1.8,1.6,3.4,4.7,3.4,9.5,0,6.9,0,12.4,0,14.1s.9,3,3.4,2.5c19.9-6.8,34.2-26,34.2-48.6,0-28.4-22.4-51.3-50-51.3Z"/>
      </g>
    </g>
  </g>
</svg>