<svg width="105" height="105" viewBox="0 0 105 105" fill="none" xmlns="http://www.w3.org/2000/svg">
<circle cx="52.5" cy="52.5" r="52.5" fill="white"/>
<path d="M46.75 55.375C47.9847 57.0256 49.5599 58.3914 51.3688 59.3797C53.1778 60.368 55.1781 60.9557 57.2341 61.103C59.2902 61.2502 61.3538 60.9535 63.2851 60.2331C65.2164 59.5127 66.9702 58.3853 68.4275 56.9275L77.0525 48.3025C79.671 45.5913 81.1199 41.9602 81.0872 38.1911C81.0544 34.422 79.5426 30.8166 76.8774 28.1514C74.2122 25.4861 70.6067 23.9743 66.8376 23.9416C63.0686 23.9088 59.4374 25.3577 56.7262 27.9762L51.7812 32.8925M58.25 49.625C57.0153 47.9744 55.4401 46.6086 53.6312 45.6203C51.8222 44.632 49.8219 44.0443 47.7659 43.897C45.7098 43.7498 43.6462 44.0464 41.7149 44.7669C39.7836 45.4873 38.0298 46.6147 36.5725 48.0725L27.9475 56.6975C25.329 59.4086 23.8801 63.0398 23.9128 66.8089C23.9456 70.578 25.4574 74.1834 28.1226 76.8486C30.7878 79.5139 34.3933 81.0257 38.1624 81.0584C41.9314 81.0912 45.5626 79.6423 48.2737 77.0237L53.19 72.1075" stroke="#1E1E1E" stroke-width="4" stroke-linecap="round" stroke-linejoin="round"/>
</svg>
