<?xml version="1.0" encoding="UTF-8"?>
<svg id="Layer_1" xmlns="http://www.w3.org/2000/svg" viewBox="0 0 453.54 453.54">
  <defs>
    <style>
      .cls-1, .cls-2 {
        fill: #fff;
      }

      .cls-2 {
        opacity: .9;
      }

      .cls-3 {
        fill: #c0282d;
        opacity: .7;
      }
    </style>
  </defs>
  <g>
    <path d="M226.77,453.04c-60.44,0-117.26-23.54-160-66.27C24.04,344.03.5,287.21.5,226.77S24.04,109.51,66.77,66.77C109.51,24.04,166.33.5,226.77.5s117.26,23.54,160,66.27c42.74,42.74,66.27,99.56,66.27,160s-23.54,117.26-66.27,160-99.56,66.27-160,66.27Z"/>
    <path class="cls-1" d="M226.77,1c30.48,0,60.05,5.97,87.88,17.74,26.88,11.37,51.03,27.65,71.76,48.39,20.73,20.73,37.01,44.88,48.39,71.76,11.77,27.83,17.74,57.4,17.74,87.88s-5.97,60.05-17.74,87.88c-11.37,26.88-27.65,51.03-48.39,71.76-20.73,20.73-44.88,37.01-71.76,48.39-27.83,11.77-57.4,17.74-87.88,17.74s-60.05-5.97-87.88-17.74c-26.88-11.37-51.03-27.65-71.76-48.39-20.73-20.73-37.01-44.88-48.39-71.76C6.97,286.82,1,257.25,1,226.77s5.97-60.05,17.74-87.88c11.37-26.88,27.65-51.03,48.39-71.76,20.73-20.73,44.88-37.01,71.76-48.39C166.73,6.97,196.29,1,226.77,1M226.77,0C101.53,0,0,101.53,0,226.77s101.53,226.77,226.77,226.77,226.77-101.53,226.77-226.77S352.01,0,226.77,0h0Z"/>
  </g>
  <g>
    <g>
      <rect class="cls-1" x="175.83" y="170.08" width="37.76" height="113.39" rx="18.06" ry="18.06"/>
      <rect class="cls-1" x="175.22" y="134.64" width="38.98" height="109.86" rx="18.06" ry="18.06" transform="translate(5.15 384.28) rotate(-90)"/>
    </g>
    <g>
      <rect class="cls-1" x="77.96" y="209.05" width="38.98" height="109.86" rx="18.06" ry="18.06" transform="translate(-166.53 361.42) rotate(-90)"/>
      <rect class="cls-1" x="42.52" y="170.08" width="37.76" height="113.39" rx="18.06" ry="18.06"/>
    </g>
    <g>
      <rect class="cls-1" x="322.88" y="120.91" width="38.98" height="137.32" rx="17.73" ry="17.73" transform="translate(152.8 531.93) rotate(-90)"/>
      <rect class="cls-1" x="273.7" y="170.08" width="36.4" height="113.39" rx="17.73" ry="17.73"/>
      <rect class="cls-1" x="323.34" y="170.08" width="36.4" height="113.39" rx="17.73" ry="17.73"/>
      <rect class="cls-1" x="374.63" y="170.08" width="36.4" height="113.39" rx="17.73" ry="17.73"/>
    </g>
  </g>
  <g>
    <g>
      <rect class="cls-3" x="175.83" y="170.08" width="37.76" height="113.39" rx="18.06" ry="18.06"/>
      <rect class="cls-3" x="175.22" y="134.64" width="38.98" height="109.86" rx="18.06" ry="18.06" transform="translate(5.15 384.28) rotate(-90)"/>
    </g>
    <rect class="cls-2" x="187.18" y="182.27" width="15.07" height="14.6" rx="6.98" ry="6.98" transform="translate(5.15 384.28) rotate(-90)"/>
    <g>
      <rect class="cls-3" x="77.96" y="209.05" width="38.98" height="109.86" rx="18.06" ry="18.06" transform="translate(-166.53 361.42) rotate(-90)"/>
      <rect class="cls-3" x="42.52" y="170.08" width="37.76" height="113.39" rx="18.06" ry="18.06"/>
    </g>
    <rect class="cls-2" x="54.1" y="256.44" width="14.6" height="15.07" rx="6.98" ry="6.98"/>
    <g>
      <rect class="cls-3" x="322.88" y="120.91" width="38.98" height="137.32" rx="17.73" ry="17.73" transform="translate(152.8 531.93) rotate(-90)"/>
      <rect class="cls-3" x="273.7" y="170.08" width="36.4" height="113.39" rx="17.73" ry="17.73"/>
      <rect class="cls-3" x="323.34" y="170.08" width="36.4" height="113.39" rx="17.73" ry="17.73"/>
      <rect class="cls-3" x="374.63" y="170.08" width="36.4" height="113.39" rx="17.73" ry="17.73"/>
    </g>
    <rect class="cls-2" x="334" y="182.53" width="15.07" height="14.07" rx="6.86" ry="6.86" transform="translate(151.97 531.1) rotate(-90)"/>
    <rect class="cls-2" x="385.29" y="182.53" width="15.07" height="14.07" rx="6.86" ry="6.86" transform="translate(203.26 582.39) rotate(-90)"/>
    <rect class="cls-2" x="284.37" y="182.53" width="15.07" height="14.07" rx="6.86" ry="6.86" transform="translate(102.34 481.47) rotate(-90)"/>
  </g>
</svg>